<svg width="69" height="75" viewBox="0 0 69 75" fill="none" xmlns="http://www.w3.org/2000/svg">
<path fill-rule="evenodd" clip-rule="evenodd" d="M0.868652 74.3166H5.20638V59.9421L16.6704 74.3166H20.3016V51.6625H15.9865V65.6272L4.88383 51.6582H0.868652V74.3123V74.3166ZM39.9049 57.0682H45.1672L48.356 62.0424L51.5761 57.0682H56.7089L50.9073 65.4341L57.0131 74.3177H51.7477L48.2589 68.9239L44.7702 74.3177H39.6342L45.7066 65.5312L39.9049 57.0682ZM64.5203 60.4534V68.6326C64.4979 68.8739 64.5285 69.1171 64.6098 69.3453C64.6911 69.5736 64.8213 69.7813 64.9912 69.9541C65.1611 70.1268 65.3666 70.2605 65.5934 70.3456C65.8203 70.4308 66.0629 70.4654 66.3045 70.4471C67.0044 70.423 67.6948 70.277 68.3445 70.0156H68.8461V73.4525C67.751 74.0658 66.5107 74.3725 65.256 74.3404C62.2516 74.3404 60.2171 73.1451 60.2171 69.1396V60.4534H58.0822L58.0584 57.0682H60.216V52.7532H64.5311V57.0682H68.8461L68.8256 60.4534H64.5203ZM31.4852 74.4504C32.8268 74.5041 34.1629 74.2487 35.3902 73.7038C36.6174 73.1589 37.703 72.3392 38.563 71.308L35.7528 69.1806C35.2064 69.7381 34.5523 70.1786 33.8304 70.4753C33.1084 70.772 32.3336 70.9188 31.5531 70.9066C30.5641 70.981 29.5828 70.6845 28.8004 70.0749C28.018 69.4652 27.4907 68.5861 27.3211 67.6089H39.371C39.4033 67.1687 39.4357 66.5614 39.4357 66.1838C39.4357 61.4103 36.7873 57.0445 31.0051 57.0445C29.8609 57.0342 28.7265 57.2552 27.6699 57.6945C26.6133 58.1337 25.6565 58.782 24.8568 59.6004C24.0571 60.4188 23.4312 61.3904 23.0166 62.4569C22.6019 63.5233 22.4072 64.6626 22.444 65.8062C22.444 71.021 26.2887 74.4472 31.4895 74.4472L31.4852 74.4504ZM27.2532 64.4599C27.6404 62.2927 28.9652 60.8795 31.0008 60.8795C33.0677 60.8795 34.3601 62.324 34.6513 64.4599H27.2575H27.2532Z" fill="#0055A5"/>
<path fill-rule="evenodd" clip-rule="evenodd" d="M19.5615 0H49.767C53.3417 0 56.2396 2.89789 56.2396 6.47261V36.6781C56.2396 40.2528 53.3417 43.1507 49.767 43.1507H19.5615C15.9868 43.1507 13.0889 40.2528 13.0889 36.6781V6.47261C13.0889 2.89789 15.9868 0 19.5615 0ZM44.3727 8.63246C45.231 8.63246 46.0542 8.97343 46.6611 9.58035C47.268 10.1873 47.609 11.0104 47.609 11.8688V18.3414C47.609 19.1997 47.268 20.0229 46.6611 20.6298C46.0542 21.2367 45.231 21.5777 44.3727 21.5777C43.5144 21.5777 42.6912 21.2367 42.0843 20.6298C41.4774 20.0229 41.1364 19.1997 41.1364 18.3414V11.8688C41.1364 11.0104 41.4774 10.1873 42.0843 9.58035C42.6912 8.97343 43.5144 8.63246 44.3727 8.63246ZM22.6582 9.57207C23.2742 8.95613 24.1096 8.61011 24.9808 8.61011C25.8519 8.61011 26.6873 8.95613 27.3033 9.57207L46.6381 28.9036C47.2545 29.52 47.6008 30.3561 47.6008 31.2278C47.6008 32.0995 47.2545 32.9356 46.6381 33.552C46.0217 34.1684 45.1856 34.5147 44.3139 34.5147C43.4421 34.5147 42.6061 34.1684 41.9897 33.552L28.1682 19.729V31.2866C28.1682 32.1449 27.8272 32.9681 27.2203 33.575C26.6134 34.182 25.7902 34.5229 24.9319 34.5229C24.0736 34.5229 23.2504 34.182 22.6435 33.575C22.0366 32.9681 21.6956 32.1449 21.6956 31.2866V11.8688H21.6958C21.6992 11.4463 21.784 11.0284 21.9458 10.6379C22.111 10.2393 22.353 9.87711 22.6582 9.57207Z" fill="#0055A5"/>
</svg>
