<svg width="195" height="35" viewBox="0 0 195 35" fill="none" xmlns="http://www.w3.org/2000/svg">
<path d="M132.5 25.4H150.1V21.5H138.5C140.1 15.1 149.9 13.7 149.9 6.6C149.9 2.8 147.3 0 141.8 0C138.4 0 135.4 1 133.4 2L134.6 5.6C136.4 4.7 138.5 3.9 141.1 3.9C143.1 3.9 145 4.8 145 7.1C145 12.3 133.5 12.7 132.5 25.4ZM150.6 19.2H161.9V25.4H166.4V19.2H170.2V15.4H166.4V0H163.1L150.6 16.2V19.2ZM155.7 15.6L162.1 7C162.1 7.7 161.9 9.9 161.9 11.9V15.5H158.9C158 15.5 156.3 15.6 155.7 15.6Z" fill="#005893"/>
<path d="M4.7 21.6V13.7H6.6C8.3 13.7 9.7 13.9 10.7 14.5C11.7 15.1 12.3 16.1 12.3 17.7C12.3 20.4 10.7 21.6 6.9 21.6H4.7ZM0.1 25.4H6.8C14.3 25.4 17 22.1 17 17.5C17 14.4 15.7 12.3 13.4 11.1C11.6 10.1 9.3 9.79998 6.5 9.79998H4.7V3.79998H14.8L16 0.0999756H0V25.4H0.1ZM20.1 25.4H24.5L30.2 17.2C31.3 15.7 32.1 14.2 32.6 13.4H32.7C32.6 14.5 32.5 15.9 32.5 17.3V25.3H37V7.29998H32.6L26.9 15.5C25.9 17 25 18.5 24.5 19.3H24.4C24.5 18.2 24.6 16.8 24.6 15.4V7.39998H20.1V25.4ZM44.7 25.4H49.3V11.1H54.7L55.9 7.29998H39.2V11.1H44.7V25.4ZM57.5 34.5H62V25.4C62.9 25.7 63.8 25.8 64.8 25.8C70.5 25.8 74.2 21.9 74.2 16.3C74.2 10.5 70.8 6.79998 64.3 6.79998C61.8 6.79998 59.4 7.29998 57.4 7.89998V34.5H57.5ZM62 21.5V10.9C62.7 10.7 63.3 10.6 64.1 10.6C67.4 10.6 69.5 12.4 69.5 16.3C69.5 19.8 67.8 22 64.4 22C63.5 22 62.8 21.8 62 21.5ZM76.9 25.4H81.3L87 17.2C88.1 15.7 88.9 14.2 89.4 13.4H89.5C89.4 14.5 89.3 15.9 89.3 17.3V25.3H93.8V7.29998H89.4L83.7 15.5C82.7 17 81.8 18.5 81.3 19.3H81.2C81.3 18.2 81.4 16.8 81.4 15.4V7.39998H76.9V25.4ZM97.4 25.4H102V17.9H104.7C105.2 17.9 105.7 18.4 106.3 19.6L108.6 25.4H113.5L110.2 18.5C109.6 17.3 109 16.6 108.1 16.3V16.2C109.6 15.3 109.8 12.7 110.7 11.4C111 11 111.4 10.8 112 10.8C112.3 10.8 112.7 10.8 113 11V7.09998C112.5 6.89998 111.6 6.79998 111.1 6.79998C109.5 6.79998 108.5 7.39998 107.8 8.39998C106.3 10.6 106.3 14.4 104.1 14.4H102V7.29998H97.4V25.4ZM123.7 25.8C126.2 25.8 128.5 25 129.9 24L128.6 20.9C127.3 21.6 126.1 22.1 124.4 22.1C121.3 22.1 119.3 20.1 119.3 16.4C119.3 13.1 121.3 10.5 124.7 10.5C126.5 10.5 127.8 11 129.1 11.9V7.99998C128.1 7.39998 126.5 6.79998 124.2 6.79998C118.8 6.79998 114.6 10.8 114.6 16.5C114.6 21.7 117.8 25.8 123.7 25.8Z" fill="#0BBBEF"/>
<path d="M185.1 19.2C190 19.2 194 15.2 194 10.3C194 5.40002 190 1.40002 185.1 1.40002C180.2 1.40002 176.2 5.40002 176.2 10.3C176.3 15.2 180.2 19.2 185.1 19.2Z" stroke="#005893" stroke-width="1.7688"/>
<path d="M190.7 10.3H185.8V5.40002H184.5V11.6H190.7V10.3Z" fill="#005893"/>
</svg>
