<svg width="21" height="21" viewBox="0 0 21 21" fill="none" xmlns="http://www.w3.org/2000/svg">
<path fill-rule="evenodd" clip-rule="evenodd" d="M17.0919 12.8494L19.2132 10.7281C21.5467 8.39461 21.5467 4.57623 19.2132 2.24278C16.8798 -0.090671 13.0614 -0.0906705 10.7279 2.24278L8.6066 4.3641C8.18234 4.78837 8.18234 5.35405 8.6066 5.77832C9.03087 6.20258 9.59655 6.20258 10.0208 5.77832L12.1421 3.65699C13.6978 2.10136 16.2434 2.10136 17.799 3.65699C19.3546 5.21263 19.3546 7.75821 17.799 9.31385L15.6777 11.4352C15.2534 11.8594 15.2534 12.4251 15.6777 12.8494C16.1019 13.2736 16.6676 13.2736 17.0919 12.8494ZM10.7279 19.2133L12.8492 17.092C13.2735 16.6678 13.2735 16.1021 12.8492 15.6778C12.425 15.2535 11.8593 15.2535 11.435 15.6778L9.31371 17.7991C7.75807 19.3548 5.21249 19.3548 3.65685 17.7991C2.10122 16.2435 2.10122 13.6979 3.65685 12.1423L5.77817 10.021C6.20244 9.59669 6.20244 9.03101 5.77817 8.60674C5.35391 8.18248 4.78823 8.18248 4.36396 8.60674L2.24264 10.7281C-0.0908117 13.0615 -0.0908117 16.8799 2.24264 19.2133C4.57609 21.5468 8.39447 21.5468 10.7279 19.2133ZM8.6066 14.2636L14.2634 8.60674C14.6877 8.18248 14.6877 7.61679 14.2634 7.19253C13.8392 6.76826 13.2735 6.76826 12.8492 7.19253L7.19238 12.8494C6.76812 13.2736 6.76812 13.8393 7.19238 14.2636C7.61665 14.6879 8.18233 14.6879 8.6066 14.2636Z" fill="white"/>
</svg>
