<svg width="82" height="76" viewBox="0 0 82 76" fill="none" xmlns="http://www.w3.org/2000/svg">
<path d="M37.6666 17.9444V5.99999C37.6666 3.22222 35.4444 1 32.6666 1H5.99999C3.22222 1 1 3.22222 1 5.99999V58.4999C1 61.2776 3.22222 63.4999 5.99999 63.4999H33.4999C35.9999 63.4999 37.9444 61.5554 37.9444 59.0554V47.9443" stroke="white" stroke-width="2" stroke-miterlimit="10" stroke-linecap="round"/>
<path d="M10.7222 1V3.49999C10.7222 4.88888 11.8333 6.27777 13.4999 6.27777H25.4444C26.8332 6.27777 28.2221 5.16666 28.2221 3.49999V1" stroke="white" stroke-width="2" stroke-miterlimit="10" stroke-linecap="round"/>
<path d="M64.6112 57.6665C64.6112 55.9999 63.7779 54.611 62.1112 54.0554C59.889 53.2221 56.8335 51.2777 55.1668 46.5554C54.6113 45.1666 53.7779 43.4999 52.9446 42.3888C52.1113 40.9999 50.7224 39.3332 49.6113 37.6666C48.5002 35.9999 48.2224 34.8888 49.6113 33.7777C50.7224 32.9444 52.389 32.9444 53.2224 34.3333C54.6113 36.2777 56.5557 38.7777 59.889 41.2777C61.0001 42.111 62.6668 41.2777 62.6668 39.8888C62.6668 39.8888 62.9446 35.9999 59.889 34.0555" stroke="white" stroke-width="2" stroke-miterlimit="10" stroke-linecap="round"/>
<path d="M64.6108 57.6663V63.7774" stroke="white" stroke-width="2" stroke-miterlimit="10" stroke-linecap="round"/>
<path d="M80.9997 74.8886V65.1664C80.9997 64.3331 80.4442 63.4998 79.3331 63.4998H61.5553C60.722 63.4998 59.8887 64.0553 59.8887 65.1664V74.8886" stroke="white" stroke-width="2" stroke-miterlimit="10" stroke-linecap="round"/>
<path d="M56.5552 25.7219C56.5552 25.7219 66.2774 26.833 70.444 30.7219C72.944 33.2219 73.4996 39.333 74.3329 42.9441C75.444 47.6663 75.9996 50.4441 75.9996 57.1107V63.7774" stroke="white" stroke-width="2" stroke-miterlimit="10" stroke-linecap="round"/>
<path d="M34.3335 35.1662C34.3335 36.5551 35.4446 37.3884 36.5557 37.3884C37.6668 37.3884 38.7779 36.2773 38.7779 35.1662C38.7779 33.7773 37.9446 33.2217 36.5557 32.9439C35.4446 32.6662 34.3335 31.8328 34.3335 30.7217C34.3335 29.3328 35.4446 28.4995 36.5557 28.4995C37.6668 28.4995 39.0557 29.3328 39.0557 30.7217" stroke="white" stroke-width="2" stroke-miterlimit="10" stroke-linecap="round"/>
<path d="M36.8335 27.1108V28.222" stroke="white" stroke-width="2" stroke-miterlimit="10" stroke-linecap="round"/>
<path d="M36.8335 37.6663V38.7774" stroke="white" stroke-width="2" stroke-miterlimit="10" stroke-linecap="round"/>
<path d="M49.889 44.3331H17.1113V21.5554H56.5557V32.9443" stroke="white" stroke-width="2" stroke-miterlimit="10" stroke-linecap="round"/>
<path d="M30.7222 38.7775C27.3888 35.4442 27.3888 30.1664 30.7222 27.1108" stroke="white" stroke-width="2" stroke-miterlimit="10" stroke-linecap="round"/>
<path d="M42.6665 27.1108C45.9998 30.4442 45.9998 35.7219 42.6665 38.7775" stroke="white" stroke-width="2" stroke-miterlimit="10" stroke-linecap="round"/>
<path d="M22.9443 33.4999C22.9443 33.2221 23.2221 32.9443 23.4999 32.9443C23.7777 32.9443 24.0554 33.2221 24.0554 33.4999C24.0554 33.7777 23.7777 34.0554 23.4999 34.0554C22.9443 34.0554 22.9443 33.7777 22.9443 33.4999Z" stroke="white" stroke-width="2" stroke-miterlimit="10" stroke-linecap="round"/>
<path d="M6.27745 59.8886H33.4996C34.0552 59.8886 34.3329 59.6108 34.3329 59.0553V52.1108C29.6107 54.0553 24.6107 55.1664 19.333 55.1664C14.0552 55.1664 9.05522 54.0553 4.33301 52.1108V58.4997C4.61078 59.333 5.16634 59.8886 6.27745 59.8886Z" fill="#DD3123"/>
</svg>
