<svg width="67" height="86" viewBox="0 0 67 86" fill="none" xmlns="http://www.w3.org/2000/svg">
<path d="M13.9458 36.6575V47.0096" stroke="white" stroke-width="2" stroke-miterlimit="10" stroke-linecap="round" stroke-linejoin="round"/>
<path d="M33.5 26.5928V47.0095" stroke="white" stroke-width="2" stroke-miterlimit="10" stroke-linecap="round" stroke-linejoin="round"/>
<path d="M53.0537 36.6575V47.0096" stroke="white" stroke-width="2" stroke-miterlimit="10" stroke-linecap="round" stroke-linejoin="round"/>
<path d="M13.9458 1V21.4167" stroke="white" stroke-width="2" stroke-miterlimit="10" stroke-linecap="round" stroke-linejoin="round"/>
<path d="M33.5 1V11.0646" stroke="white" stroke-width="2" stroke-miterlimit="10" stroke-linecap="round" stroke-linejoin="round"/>
<path d="M53.0537 1V21.4167" stroke="white" stroke-width="2" stroke-miterlimit="10" stroke-linecap="round" stroke-linejoin="round"/>
<path d="M13.9457 33.4941C16.4867 33.4941 18.5466 31.4342 18.5466 28.8932C18.5466 26.3522 16.4867 24.2922 13.9457 24.2922C11.4046 24.2922 9.34473 26.3522 9.34473 28.8932C9.34473 31.4342 11.4046 33.4941 13.9457 33.4941Z" stroke="white" stroke-width="2" stroke-miterlimit="10" stroke-linecap="round" stroke-linejoin="round"/>
<path d="M53.0541 33.4941C55.5951 33.4941 57.655 31.4342 57.655 28.8932C57.655 26.3522 55.5951 24.2922 53.0541 24.2922C50.513 24.2922 48.4531 26.3522 48.4531 28.8932C48.4531 31.4342 50.513 33.4941 53.0541 33.4941Z" stroke="white" stroke-width="2" stroke-miterlimit="10" stroke-linecap="round" stroke-linejoin="round"/>
<path d="M38.3884 18.8285C38.3884 16.2405 36.3755 14.2275 33.7875 14.2275C31.1994 14.2275 29.1865 16.2405 29.1865 18.8285C29.1865 21.4165 31.1994 23.4294 33.7875 23.4294C36.0879 23.717 38.3884 21.4165 38.3884 18.8285Z" stroke="white" stroke-width="2" stroke-miterlimit="10" stroke-linecap="round" stroke-linejoin="round"/>
<path d="M53.0542 11.3521H60.5307C63.1188 11.3521 65.1317 13.365 65.1317 15.953V53.6233C65.1317 56.2113 63.1188 58.2242 60.5307 58.2242H6.4696C3.88157 58.2242 1.86865 56.2113 1.86865 53.6233V15.953C1.86865 13.365 3.88157 11.3521 6.4696 11.3521H13.9461" stroke="white" stroke-width="2" stroke-miterlimit="10" stroke-linecap="round" stroke-linejoin="round"/>
<path d="M17.3966 58.5117L14.521 65.7007H33.4999H52.7664L49.8908 58.5117" stroke="white" stroke-width="2" stroke-miterlimit="10" stroke-linecap="round" stroke-linejoin="round"/>
<path d="M60.243 71.1646L65.7066 81.2291C66.5693 82.6669 65.4191 84.6798 63.6937 84.6798H33.5H3.30628C1.58092 84.6798 0.430687 82.9545 1.29336 81.2291L6.75699 71.1646H60.243Z" stroke="white" stroke-width="2" stroke-miterlimit="10" stroke-linecap="round" stroke-linejoin="round"/>
<path d="M7.61963 47.0095H59.3803" stroke="white" stroke-width="2" stroke-miterlimit="10" stroke-linecap="round" stroke-linejoin="round"/>
<path d="M5.89453 80.9413L9.05768 74.9026H57.9428L61.3935 80.9413H5.89453Z" fill="#DD3123"/>
</svg>
