<svg width="72" height="79" viewBox="0 0 72 79" fill="none" xmlns="http://www.w3.org/2000/svg">
<path d="M46.5554 1H31.5554C30.9999 1 30.4443 1.55556 30.4443 2.11111V8.5C30.4443 9.88889 31.5554 11 32.9443 11C34.0554 11 34.8888 10.4444 35.1666 9.33333C35.7221 7.94444 37.3888 6.83333 39.0554 6.83333C40.7221 6.83333 42.3888 7.94444 42.9443 9.33333C43.2221 10.4444 44.3332 11.2778 45.1666 11.2778C46.5554 11.2778 47.6666 10.1667 47.6666 8.77778V2.11111C47.6666 1.55556 47.3888 1 46.5554 1Z" stroke="white" stroke-width="2" stroke-miterlimit="10" stroke-linecap="round" stroke-linejoin="round"/>
<path d="M65.4442 7.11108H70.9997V58.5C70.9997 65.4444 65.4442 71 58.4997 71H34.6108" stroke="white" stroke-width="2" stroke-miterlimit="10" stroke-linecap="round" stroke-linejoin="round"/>
<path d="M36.8335 65.4446H54.0557C56.0002 65.4446 57.3891 63.7779 57.3891 62.1113V57.6668H61.8335C63.7779 57.6668 65.1668 56.0002 65.1668 54.3335V1.8335H51.5557" stroke="white" stroke-width="2" stroke-miterlimit="10" stroke-linecap="round" stroke-linejoin="round"/>
<path d="M26.2776 1.8335H12.6665V41.5557" stroke="white" stroke-width="2" stroke-miterlimit="10" stroke-linecap="round" stroke-linejoin="round"/>
<path d="M21.2778 34.0558V24.8892L18.5 27.1114" stroke="white" stroke-width="2" stroke-miterlimit="10" stroke-linecap="round" stroke-linejoin="round"/>
<path d="M19.6113 34.0559H22.6669" stroke="white" stroke-width="2" stroke-miterlimit="10" stroke-linecap="round" stroke-linejoin="round"/>
<path d="M27.9443 34.0558C26.5554 34.0558 25.4443 32.9447 25.4443 31.5558V27.3892C25.4443 26.0003 26.5554 24.8892 27.9443 24.8892C29.3332 24.8892 30.4443 26.0003 30.4443 27.3892V31.5558C30.7221 32.9447 29.3332 34.0558 27.9443 34.0558Z" stroke="white" stroke-width="2" stroke-miterlimit="10" stroke-linecap="round" stroke-linejoin="round"/>
<path d="M46 27.6672C46 26.2783 47.1111 25.1672 48.5 25.1672C49.8889 25.1672 51 26.2783 51 27.6672C51 28.5006 50.7222 29.3339 49.8889 29.6117C48.5 30.445 47.3889 31.5561 46.8333 32.945L46.5556 33.5006H51.5556" stroke="white" stroke-width="2" stroke-miterlimit="10" stroke-linecap="round" stroke-linejoin="round"/>
<path d="M57.1108 34.0558C55.7219 34.0558 54.6108 32.9447 54.6108 31.5558V27.3892C54.6108 26.0003 55.7219 24.8892 57.1108 24.8892C58.4997 24.8892 59.6108 26.0003 59.6108 27.3892V31.278C59.6108 32.9447 58.4997 34.0558 57.1108 34.0558Z" stroke="white" stroke-width="2" stroke-miterlimit="10" stroke-linecap="round" stroke-linejoin="round"/>
<path d="M36 29.6118H42.1111" stroke="white" stroke-width="2" stroke-miterlimit="10" stroke-linecap="round" stroke-linejoin="round"/>
<path d="M39.0557 26.5562V32.6673" stroke="white" stroke-width="2" stroke-miterlimit="10" stroke-linecap="round" stroke-linejoin="round"/>
<path d="M1 60.7224C1 69.889 8.22222 77.1113 17.3889 77.1113C26.5556 77.1113 33.7778 69.889 33.7778 60.7224C33.7778 51.5557 26.5556 44.3335 17.3889 44.3335C8.5 44.3335 1 51.8335 1 60.7224Z" stroke="white" stroke-width="2" stroke-miterlimit="10" stroke-linecap="round" stroke-linejoin="round"/>
<path d="M17.3889 69.6113C22.1112 69.6113 26.2778 65.7224 26.2778 60.7224C26.2778 56.0002 22.3889 51.8335 17.3889 51.8335C12.9445 51.8335 9.33339 55.1668 8.77783 59.3335" stroke="white" stroke-width="2" stroke-miterlimit="10" stroke-linecap="round" stroke-linejoin="round"/>
<path d="M11.2778 61.2783L8.77778 63.7783L6 61.2783" stroke="white" stroke-width="2" stroke-miterlimit="10" stroke-linecap="round" stroke-linejoin="round"/>
<path d="M54.0557 57.6668C54.0557 55.7224 55.7224 54.0557 57.6668 54.0557H61.8335V44.3335C61.5557 44.3335 61.2779 44.3335 61.0002 44.3335C51.8335 44.3335 44.3335 51.8335 44.3335 61.0002C44.3335 61.2779 44.3335 61.5557 44.3335 61.8335H54.0557V57.6668Z" fill="#DD3123"/>
</svg>
