<svg width="85" height="91" viewBox="0 0 85 91" fill="none" xmlns="http://www.w3.org/2000/svg">
<path d="M60.5874 63.4533H51.0707L66.5354 45.312L82.0001 63.4533H72.4833V70.5908C72.4833 80.1076 62.9666 80.1076 62.9666 80.1076H47.7993" stroke="white" stroke-width="2" stroke-miterlimit="10" stroke-linecap="round"/>
<path d="M35.0111 44.4201C30.8476 44.4201 26.684 42.0409 24.3048 38.1747C19.8439 31.3346 18.9517 24.4944 18.9517 16.1673C18.9517 16.1673 19.2491 1 35.0111 1" stroke="white" stroke-width="2" stroke-miterlimit="10" stroke-linecap="round"/>
<path d="M35.0112 44.4201C39.1748 44.4201 43.3384 42.0409 45.7175 38.1747C50.1785 31.3346 51.0707 24.4944 51.0707 16.1673C51.0707 16.1673 50.7733 1 35.0112 1" stroke="white" stroke-width="2" stroke-miterlimit="10" stroke-linecap="round"/>
<path d="M27.2788 42.041C27.2788 42.6358 27.2788 42.9332 27.2788 43.528C26.9814 47.6916 24.0074 50.9629 20.1413 51.8551L12.4089 53.9369C9.43494 54.5317 5.86617 57.2083 4.37918 61.6693C4.08178 62.5615 3.78439 63.4537 3.78439 64.6432L2 80.4053H23.4126" stroke="white" stroke-width="2" stroke-miterlimit="10" stroke-linecap="round"/>
<path d="M42.4458 42.041C42.4458 42.6358 42.4458 42.9332 42.4458 43.528C42.7432 47.6916 45.7172 50.9629 49.5833 51.8551L54.6391 53.0447" stroke="white" stroke-width="2" stroke-miterlimit="10" stroke-linecap="round"/>
<path d="M38.2826 55.7209L42.7436 80.1076L35.0112 89.3269" stroke="white" stroke-width="2" stroke-miterlimit="10" stroke-linecap="round" stroke-linejoin="round"/>
<path d="M31.4424 55.7209L26.9814 80.1076L35.0112 89.3269" stroke="white" stroke-width="2" stroke-miterlimit="10" stroke-linecap="round" stroke-linejoin="round"/>
<path d="M41.5538 50.0706L35.011 53.6393L28.4683 50.0706" stroke="white" stroke-width="2" stroke-miterlimit="10" stroke-linecap="round" stroke-linejoin="round"/>
<path d="M32.3346 73.5647L31.4424 79.2153L35.3086 83.3788L39.1747 79.2153L38.2825 73.5647C37.3903 73.8621 36.4981 74.1595 35.606 74.1595C34.119 74.1595 33.2268 73.8621 32.3346 73.5647Z" fill="#DD3123"/>
</svg>
