<svg width="100" height="71" viewBox="0 0 100 71" fill="none" xmlns="http://www.w3.org/2000/svg">
<mask id="path-1-inside-1" fill="white">
<path fill-rule="evenodd" clip-rule="evenodd" d="M89.0691 2.10284C93.3717 3.26045 96.7602 6.67112 97.9104 11.0014C100 18.8505 100 35.2271 100 35.2271C100 35.2271 100 51.6041 97.9104 59.4529C96.7602 63.7833 93.3717 67.0518 89.0691 68.2096C81.2708 70.3127 50 70.3127 50 70.3127C50 70.3127 18.7292 70.3127 10.9305 68.2099C6.62807 67.052 3.23958 63.7836 2.08957 59.4531C0 51.6044 0 35.2273 0 35.2273C0 35.2273 0 18.8505 2.08957 11.0016C3.23958 6.67112 6.62807 3.26067 10.9305 2.10305C18.7292 0 50 0 50 0C50 0 81.2708 0 89.0691 2.10284ZM39.7724 20.3583V50.096L65.9086 35.2275L39.7724 20.3583Z"/>
</mask>
<path d="M97.9104 11.0014L95.9775 11.5148L95.9777 11.5159L97.9104 11.0014ZM89.0691 2.10284L88.5484 4.03386L88.5495 4.03416L89.0691 2.10284ZM97.9104 59.4529L95.9777 58.9383L95.9774 58.9394L97.9104 59.4529ZM89.0691 68.2096L88.5494 66.2784L88.5483 66.2786L89.0691 68.2096ZM50 70.3127V72.3127V70.3127ZM10.9305 68.2099L11.4512 66.2788L11.4502 66.2786L10.9305 68.2099ZM2.08957 59.4531L4.02257 58.9398L4.02225 58.9386L2.08957 59.4531ZM2.08957 11.0016L4.02226 11.5161L4.02257 11.5149L2.08957 11.0016ZM10.9305 2.10305L11.4501 4.03437L11.4512 4.03407L10.9305 2.10305ZM39.7724 50.096H37.7724V53.5348L40.7614 51.8344L39.7724 50.096ZM39.7724 20.3583L40.7614 18.6199L37.7724 16.9194V20.3583H39.7724ZM65.9086 35.2275L66.8976 36.9659L69.9533 35.2275L66.8976 33.4891L65.9086 35.2275ZM99.8434 10.4879C98.5108 5.47118 94.587 1.51629 89.5887 0.171516L88.5495 4.03416C92.1564 5.00461 95.0096 7.87106 95.9775 11.5148L99.8434 10.4879ZM100 35.2271C102 35.2271 102 35.2269 102 35.2267C102 35.2265 102 35.2262 102 35.2259C102 35.2252 102 35.2243 102 35.2231C102 35.2208 102 35.2175 102 35.2132C102 35.2046 102 35.1921 102 35.1758C102 35.1432 102 35.0953 101.999 35.0329C101.999 34.9081 101.998 34.7253 101.996 34.4905C101.992 34.0209 101.983 33.3433 101.967 32.5062C101.934 30.8331 101.868 28.5189 101.736 25.9549C101.475 20.8865 100.948 14.6374 99.8431 10.4868L95.9777 11.5159C96.9624 15.2144 97.4799 21.0783 97.7414 26.1605C97.8707 28.6718 97.9354 30.9422 97.9677 32.585C97.9839 33.4059 97.992 34.069 97.996 34.5257C97.998 34.754 97.999 34.9307 97.9995 35.0497C97.9998 35.1091 97.9999 35.1541 97.9999 35.184C98 35.1989 98 35.21 98 35.2172C98 35.2208 98 35.2235 98 35.2251C98 35.226 98 35.2265 98 35.2269C98 35.227 98 35.2271 98 35.2272C98 35.2272 98 35.2271 100 35.2271ZM99.8431 59.9674C100.948 55.817 101.475 49.568 101.736 44.4995C101.868 41.9355 101.934 39.6212 101.967 37.948C101.983 37.111 101.992 36.4333 101.996 35.9638C101.998 35.729 101.999 35.5461 101.999 35.4213C102 35.3589 102 35.311 102 35.2784C102 35.2621 102 35.2496 102 35.241C102 35.2367 102 35.2334 102 35.2311C102 35.2299 102 35.229 102 35.2284C102 35.228 102 35.2277 102 35.2276C102 35.2273 102 35.2271 100 35.2271C98 35.2271 98 35.2271 98 35.2271C98 35.2271 98 35.2272 98 35.2274C98 35.2277 98 35.2283 98 35.2291C98 35.2307 98 35.2334 98 35.237C98 35.2442 98 35.2553 97.9999 35.2702C97.9999 35.3001 97.9998 35.3451 97.9995 35.4046C97.999 35.5235 97.998 35.7002 97.996 35.9285C97.992 36.3852 97.9839 37.0483 97.9677 37.8693C97.9354 39.5121 97.8707 41.7826 97.7414 44.2939C97.4799 49.3762 96.9624 55.24 95.9777 58.9383L99.8431 59.9674ZM89.5888 70.1409C94.552 68.8054 98.5017 65.0178 99.8434 59.9663L95.9774 58.9394C95.0187 62.5489 92.1914 65.2983 88.5494 66.2784L89.5888 70.1409ZM50 70.3127C50 72.3127 50.0002 72.3127 50.0005 72.3127C50.0007 72.3127 50.0012 72.3127 50.0017 72.3127C50.0027 72.3127 50.0042 72.3127 50.0062 72.3127C50.0102 72.3127 50.016 72.3127 50.0238 72.3127C50.0392 72.3127 50.062 72.3127 50.0921 72.3126C50.1522 72.3126 50.2413 72.3124 50.3575 72.3122C50.59 72.3117 50.9314 72.3106 51.3683 72.3086C52.2421 72.3045 53.4981 72.2962 55.0294 72.2797C58.0912 72.2468 62.2572 72.1809 66.67 72.0489C71.0795 71.9171 75.7517 71.7189 79.8211 71.4201C83.8339 71.1255 87.4312 70.7228 89.5898 70.1407L88.5483 66.2786C86.8078 66.748 83.5719 67.134 79.5282 67.4308C75.541 67.7236 70.9333 67.9197 66.5504 68.0507C62.1707 68.1817 58.0316 68.2472 54.9864 68.28C53.4642 68.2963 52.2163 68.3045 51.3495 68.3086C50.9161 68.3107 50.578 68.3117 50.3486 68.3122C50.234 68.3125 50.1464 68.3126 50.0878 68.3126C50.0584 68.3127 50.0363 68.3127 50.0216 68.3127C50.0143 68.3127 50.0088 68.3127 50.0052 68.3127C50.0034 68.3127 50.002 68.3127 50.0012 68.3127C50.0007 68.3127 50.0004 68.3127 50.0002 68.3127C50.0001 68.3127 50 68.3127 50 70.3127ZM10.4098 70.1409C12.5685 70.723 16.1659 71.1256 20.1788 71.4202C24.2482 71.7189 28.9204 71.9171 33.33 72.049C37.7428 72.1809 41.9088 72.2468 44.9706 72.2797C46.5018 72.2962 47.7579 72.3045 48.6317 72.3086C49.0686 72.3106 49.41 72.3117 49.6425 72.3122C49.7587 72.3124 49.8478 72.3126 49.9079 72.3126C49.938 72.3127 49.9608 72.3127 49.9762 72.3127C49.984 72.3127 49.9898 72.3127 49.9938 72.3127C49.9958 72.3127 49.9973 72.3127 49.9983 72.3127C49.9988 72.3127 49.9992 72.3127 49.9995 72.3127C49.9998 72.3127 50 72.3127 50 70.3127C50 68.3127 49.9999 68.3127 49.9998 68.3127C49.9996 68.3127 49.9993 68.3127 49.9988 68.3127C49.998 68.3127 49.9966 68.3127 49.9948 68.3127C49.9912 68.3127 49.9857 68.3127 49.9784 68.3127C49.9637 68.3127 49.9416 68.3127 49.9122 68.3126C49.8536 68.3126 49.766 68.3125 49.6514 68.3122C49.422 68.3117 49.0839 68.3107 48.6505 68.3086C47.7837 68.3045 46.5358 68.2963 45.0136 68.28C41.9684 68.2472 37.8292 68.1817 33.4495 68.0507C29.0666 67.9197 24.4589 67.7236 20.4716 67.4309C16.4278 67.1341 13.1918 66.7482 11.4512 66.2788L10.4098 70.1409ZM0.156574 59.9664C1.49808 65.018 5.44779 68.8056 10.4107 70.1412L11.4502 66.2786C7.80835 65.2985 4.98108 62.5491 4.02257 58.9398L0.156574 59.9664ZM0 35.2273C-2 35.2273 -2 35.2275 -2 35.2278C-2 35.2279 -2 35.2282 -2 35.2286C-2 35.2292 -2 35.2302 -2 35.2313C-2 35.2336 -2 35.237 -1.99999 35.2412C-1.99998 35.2498 -1.99997 35.2623 -1.99993 35.2786C-1.99987 35.3113 -1.99973 35.3591 -1.99947 35.4215C-1.99895 35.5463 -1.99791 35.7292 -1.99584 35.964C-1.9917 36.4335 -1.98345 37.1112 -1.96696 37.9483C-1.93401 39.6214 -1.86811 41.9357 -1.73616 44.4997C-1.47532 49.5682 -0.948067 55.8172 0.156895 59.9676L4.02225 58.9386C3.03764 55.2402 2.52011 49.3764 2.25855 44.2941C2.12931 41.7828 2.06461 39.5123 2.03226 37.8695C2.0161 37.0485 2.00803 36.3854 2.004 35.9287C2.00199 35.7004 2.00099 35.5237 2.00049 35.4048C2.00024 35.3453 2.00012 35.3003 2.00006 35.2705C2.00003 35.2556 2.00001 35.2444 2.00001 35.2372C2 35.2336 2 35.231 2 35.2293C2 35.2285 2 35.2279 2 35.2276C2 35.2274 2 35.2273 2 35.2273C2 35.2273 2 35.2273 0 35.2273ZM0.156891 10.487C-0.948066 14.6375 -1.47532 20.8866 -1.73616 25.955C-1.86811 28.519 -1.93401 30.8333 -1.96696 32.5064C-1.98345 33.3434 -1.9917 34.0211 -1.99584 34.4907C-1.99791 34.7255 -1.99895 34.9083 -1.99947 35.0331C-1.99973 35.0955 -1.99987 35.1434 -1.99993 35.176C-1.99997 35.1923 -1.99998 35.2048 -1.99999 35.2134C-2 35.2177 -2 35.221 -2 35.2233C-2 35.2245 -2 35.2254 -2 35.2261C-2 35.2264 -2 35.2267 -2 35.2269C-2 35.2271 -2 35.2273 0 35.2273C2 35.2273 2 35.2274 2 35.2274C2 35.2273 2 35.2272 2 35.2271C2 35.2267 2 35.2262 2 35.2253C2 35.2237 2 35.2211 2.00001 35.2174C2.00001 35.2102 2.00003 35.1991 2.00006 35.1842C2.00012 35.1544 2.00024 35.1093 2.00049 35.0499C2.00099 34.9309 2.00199 34.7543 2.004 34.5259C2.00803 34.0692 2.0161 33.4061 2.03226 32.5852C2.06461 30.9424 2.12931 28.6719 2.25855 26.1606C2.5201 21.0784 3.03764 15.2146 4.02226 11.5161L0.156891 10.487ZM10.4108 0.17174C5.41283 1.51651 1.48892 5.47117 0.156574 10.4882L4.02257 11.5149C4.99024 7.87107 7.84331 5.00482 11.4501 4.03437L10.4108 0.17174ZM50 0C50 -2 49.9998 -2 49.9995 -2C49.9993 -2 49.9988 -2 49.9983 -2C49.9973 -2 49.9958 -2 49.9938 -2C49.9898 -2 49.984 -2 49.9762 -1.99999C49.9608 -1.99998 49.938 -1.99997 49.9079 -1.99993C49.8478 -1.99987 49.7587 -1.99974 49.6425 -1.99948C49.41 -1.99896 49.0686 -1.99793 48.6317 -1.99587C47.7579 -1.99175 46.5018 -1.9835 44.9706 -1.96702C41.9088 -1.93407 37.7428 -1.86816 33.33 -1.73623C28.9204 -1.60439 24.2481 -1.40616 20.1787 -1.10741C16.1659 -0.8128 12.5685 -0.410095 10.4098 0.172033L11.4512 4.03407C13.1919 3.56468 16.4278 3.17874 20.4716 2.88186C24.4589 2.58913 29.0666 2.39303 33.4495 2.26199C37.8292 2.13104 41.9684 2.06552 45.0136 2.03274C46.5358 2.01636 47.7837 2.00818 48.6505 2.00409C49.0839 2.00204 49.422 2.00102 49.6514 2.00051C49.766 2.00025 49.8536 2.00013 49.9122 2.00006C49.9416 2.00003 49.9637 2.00002 49.9784 2.00001C49.9857 2 49.9912 2 49.9948 2C49.9966 2 49.998 2 49.9988 2C49.9993 2 49.9996 2 49.9998 2C49.9999 2 50 2 50 0ZM89.5898 0.17181C87.4312 -0.410261 83.8339 -0.812923 79.8211 -1.1075C75.7517 -1.40622 71.0795 -1.60443 66.6699 -1.73625C62.2571 -1.86817 58.0912 -1.93408 55.0294 -1.96703C53.4981 -1.9835 52.2421 -1.99175 51.3683 -1.99587C50.9314 -1.99793 50.59 -1.99896 50.3575 -1.99948C50.2413 -1.99974 50.1522 -1.99987 50.0921 -1.99993C50.062 -1.99997 50.0392 -1.99998 50.0238 -1.99999C50.016 -2 50.0102 -2 50.0062 -2C50.0042 -2 50.0027 -2 50.0017 -2C50.0012 -2 50.0007 -2 50.0005 -2C50.0002 -2 50 -2 50 0C50 2 50.0001 2 50.0002 2C50.0004 2 50.0007 2 50.0012 2C50.002 2 50.0034 2 50.0052 2C50.0088 2 50.0143 2 50.0216 2.00001C50.0363 2.00002 50.0584 2.00003 50.0878 2.00006C50.1464 2.00013 50.234 2.00025 50.3486 2.00051C50.578 2.00102 50.9161 2.00204 51.3495 2.00408C52.2163 2.00818 53.4642 2.01636 54.9864 2.03274C58.0316 2.06551 62.1707 2.13103 66.5504 2.26196C70.9333 2.39299 75.541 2.58907 79.5282 2.88177C83.572 3.17861 86.8078 3.56452 88.5484 4.03386L89.5898 0.17181ZM41.7724 50.096V20.3583H37.7724V50.096H41.7724ZM64.9197 33.4891L38.7835 48.3576L40.7614 51.8344L66.8976 36.9659L64.9197 33.4891ZM38.7835 22.0966L64.9197 36.9658L66.8976 33.4891L40.7614 18.6199L38.7835 22.0966Z" fill="white" mask="url(#path-1-inside-1)"/>
</svg>
